<svg xmlns="http://www.w3.org/2000/svg" viewBox="0 0 64 64" role="img" aria-label="Signature Tattooz favicon">
  <rect width="64" height="64" rx="14" fill="#f4ede3" />
  <path d="M20 16h24v6H34v26h-8V22H20z" fill="#161210" />
  <path d="M16 42h6c.5 4 3.2 6 8.2 6 4.5 0 7.1-1.4 7.1-4.3 0-2.7-2-3.8-8.4-5.2-8.6-1.9-12-4.8-12-10.8 0-7 5.9-11.7 14.8-11.7 8.9 0 14.6 4.5 15.1 11.7h-6c-.5-3.7-3.1-5.8-8-5.8-4.2 0-6.9 1.8-6.9 4.7 0 2.6 2 3.7 8.5 5.2 8.8 2 11.9 4.6 11.9 10.8 0 7.2-5.7 11.4-15.3 11.4-9.9 0-15.6-4.6-15.9-12z" fill="#b89160" />
</svg>
